<?xml version="1.0" standalone="no"?><!DOCTYPE svg PUBLIC "-//W3C//DTD SVG 1.1//EN" "http://www.w3.org/Graphics/SVG/1.1/DTD/svg11.dtd"><svg t="1487406489104" class="icon" style="" viewBox="0 0 1024 1024" version="1.1" xmlns="http://www.w3.org/2000/svg" p-id="2544" xmlns:xlink="http://www.w3.org/1999/xlink" width="200" height="200"><defs><style type="text/css"></style></defs><path d="M1009.015467 9.796267c-46.421333-27.136-992.238933 434.688-997.358933 474.112-5.12 39.5776 331.093333 146.432 351.573333 174.421333 20.48 27.972267 154.282667 351.232 201.540267 357.034667C612.0448 1021.166933 1055.266133 37.085867 1009.015467 9.796267zM171.042133 482.372267c102.912-64.187733 466.944-239.803733 646.144-317.457067l-413.013333 417.809067C295.9872 531.8656 224.648533 510.3616 171.042133 482.372267zM569.565867 870.9632c-21.8624-28.16-89.088-174.762667-118.613333-234.666667l425.454933-430.574933C805.239467 390.0416 597.691733 845.3632 569.565867 870.9632z" p-id="2545" fill="#ffffff"></path></svg>